/* XPM */
static char *close_prelight[] = {
/* columns rows colors chars-per-pixel */
"30 32 5 1 ",
"  c black",
". c #2D3A4E",
"X c #6E8EBE",
"o c #AEAEAE",
"O c white",
/* pixels */
"OOOOOOOOOOOOOOOOOOOOOOOOOOOOOO",
"OOOOOOOOOOOOOOOOOOOOOOOOOOOOOO",
"XXXXXXXXXXXXXXXXXXXXXXXXXX  OO",
"XXXXXXXXXXXXXXXXXXXXXXXXXX  OO",
"XXXXXXXXXXXXXXXXXXXXXXXXXX  OO",
"XXXXXXXXXXXXXXXXXXXXXXXXXX  OO",
"XXXXXXXXXXXXXXXXXXXXXXXXXX  OO",
"XXXXXXXXXXXXXXXXXXXXXXXXXX  OO",
"XXXXXXXXXXXXXXXXXXXXXXXXXX  OO",
"XXXXXXXXXXXXXXXXXXXXXXXXXX  OO",
"XXXXXXXXXXXXXXXXXXXXXXXXXX  OO",
"XXXXXXXXX.      .XXXXXXXXX  OO",
"XXXXXXXXX oooooo XXXXXXXXX  OO",
"XXXXXXXXX oooooo XXXXXXXXX  OO",
"XXXXXXXXX oooooo XXXXXXXXX  OO",
"XXXXXXXXX oooooo XXXXXXXXX  OO",
"XXXXXXXXX oooooo XXXXXXXXX  OO",
"XXXXXXXXX oooooo XXXXXXXXX  OO",
"XXXXXXXXX oooooo XXXXXXXXX  OO",
"XXXXXXXXX oooooo XXXXXXXXX  OO",
"XXXXXXXXX oooooo XXXXXXXXX  OO",
"XXXXXXXXX.      .XXXXXXXXX  OO",
"XXXXXXXXXXXXXXXXXXXXXXXXXX  OO",
"XXXXXXXXXXXXXXXXXXXXXXXXXX  OO",
"XXXXXXXXXXXXXXXXXXXXXXXXXX  OO",
"XXXXXXXXXXXXXXXXXXXXXXXXXX  OO",
"XXXXXXXXXXXXXXXXXXXXXXXXXX  OO",
"XXXXXXXXXXXXXXXXXXXXXXXXXX  OO",
"XXXXXXXXXXXXXXXXXXXXXXXXXX  OO",
"XXXXXXXXXXXXXXXXXXXXXXXXXX  OO",
"                              ",
"                              "
};
