/* XPM */
static char *close_inactive[] = {
/* columns rows colors chars-per-pixel */
"30 32 4 1 ",
"  c black",
". c #484848",
"X c #AEAEAE",
"o c white",
/* pixels */
"oooooooooooooooooooooooooooooo",
"oooooooooooooooooooooooooooooo",
"XXXXXXXXXXXXXXXXXXXXXXXXXX  oo",
"XXXXXXXXXXXXXXXXXXXXXXXXXX  oo",
"XXXXXXXXXXXXXXXXXXXXXXXXXX  oo",
"XXXXXXXXXXXXXXXXXXXXXXXXXX  oo",
"XXXXXXXXXXXXXXXXXXXXXXXXXX  oo",
"XXXXXXXXXXXXXXXXXXXXXXXXXX  oo",
"XXXXXXXXXXXXXXXXXXXXXXXXXX  oo",
"XXXXXXXXXXXXXXXXXXXXXXXXXX  oo",
"XXXXXXXXXXXXXXXXXXXXXXXXXX  oo",
"XXXXXXXXX.      .XXXXXXXXX  oo",
"XXXXXXXXX XXXXXX XXXXXXXXX  oo",
"XXXXXXXXX XXXXXX XXXXXXXXX  oo",
"XXXXXXXXX XXXXXX XXXXXXXXX  oo",
"XXXXXXXXX XXXXXX XXXXXXXXX  oo",
"XXXXXXXXX XXXXXX XXXXXXXXX  oo",
"XXXXXXXXX XXXXXX XXXXXXXXX  oo",
"XXXXXXXXX XXXXXX XXXXXXXXX  oo",
"XXXXXXXXX XXXXXX XXXXXXXXX  oo",
"XXXXXXXXX XXXXXX XXXXXXXXX  oo",
"XXXXXXXXX.      .XXXXXXXXX  oo",
"XXXXXXXXXXXXXXXXXXXXXXXXXX  oo",
"XXXXXXXXXXXXXXXXXXXXXXXXXX  oo",
"XXXXXXXXXXXXXXXXXXXXXXXXXX  oo",
"XXXXXXXXXXXXXXXXXXXXXXXXXX  oo",
"XXXXXXXXXXXXXXXXXXXXXXXXXX  oo",
"XXXXXXXXXXXXXXXXXXXXXXXXXX  oo",
"XXXXXXXXXXXXXXXXXXXXXXXXXX  oo",
"XXXXXXXXXXXXXXXXXXXXXXXXXX  oo",
"                              ",
"                              "
};
