/* XPM */
static char *close_pressed[] = {
/* columns rows colors chars-per-pixel */
"30 32 4 1 ",
"  c black",
". c #2D3A4E",
"X c #6E8EBE",
"o c white",
/* pixels */
"oooooooooooooooooooooooooooooo",
"oooooooooooooooooooooooooooooo",
"                            oo",
"                            oo",
"  XXXXXXXXXXXXXXXXXXXXXXXXXXoo",
"  XXXXXXXXXXXXXXXXXXXXXXXXXXoo",
"  XXXXXXXXXXXXXXXXXXXXXXXXXXoo",
"  XXXXXXXXXXXXXXXXXXXXXXXXXXoo",
"  XXXXXXXXXXXXXXXXXXXXXXXXXXoo",
"  XXXXXXXXXXXXXXXXXXXXXXXXXXoo",
"  XXXXXXXXXXXXXXXXXXXXXXXXXXoo",
"  XXXXXXX.      .XXXXXXXXXXXoo",
"  XXXXXXX oooooo XXXXXXXXXXXoo",
"  XXXXXXX oooooo XXXXXXXXXXXoo",
"  XXXXXXX oooooo XXXXXXXXXXXoo",
"  XXXXXXX oooooo XXXXXXXXXXXoo",
"  XXXXXXX oooooo XXXXXXXXXXXoo",
"  XXXXXXX oooooo XXXXXXXXXXXoo",
"  XXXXXXX oooooo XXXXXXXXXXXoo",
"  XXXXXXX oooooo XXXXXXXXXXXoo",
"  XXXXXXX oooooo XXXXXXXXXXXoo",
"  XXXXXXX.      .XXXXXXXXXXXoo",
"  XXXXXXXXXXXXXXXXXXXXXXXXXXoo",
"  XXXXXXXXXXXXXXXXXXXXXXXXXXoo",
"  XXXXXXXXXXXXXXXXXXXXXXXXXXoo",
"  XXXXXXXXXXXXXXXXXXXXXXXXXXoo",
"  XXXXXXXXXXXXXXXXXXXXXXXXXXoo",
"  XXXXXXXXXXXXXXXXXXXXXXXXXXoo",
"oooooooooooooooooooooooooooooo",
"oooooooooooooooooooooooooooooo",
"                              ",
"                              "
};
