/* XPM */
static char *close_active[] = {
/* columns rows colors chars-per-pixel */
"30 32 4 1 ",
"  c black",
". c #2D3A4E",
"X c #6E8EBE",
"o c white",
/* pixels */
"oooooooooooooooooooooooooooooo",
"oooooooooooooooooooooooooooooo",
"XXXXXXXXXXXXXXXXXXXXXXXXXX  oo",
"XXXXXXXXXXXXXXXXXXXXXXXXXX  oo",
"XXXXXXXXXXXXXXXXXXXXXXXXXX  oo",
"XXXXXXXXXXXXXXXXXXXXXXXXXX  oo",
"XXXXXXXXXXXXXXXXXXXXXXXXXX  oo",
"XXXXXXXXXXXXXXXXXXXXXXXXXX  oo",
"XXXXXXXXXXXXXXXXXXXXXXXXXX  oo",
"XXXXXXXXXXXXXXXXXXXXXXXXXX  oo",
"XXXXXXXXXXXXXXXXXXXXXXXXXX  oo",
"XXXXXXXXXX.      .XXXXXXXX  oo",
"XXXXXXXXXX oooooo XXXXXXXX  oo",
"XXXXXXXXXX oooooo XXXXXXXX  oo",
"XXXXXXXXXX oooooo XXXXXXXX  oo",
"XXXXXXXXXX oooooo XXXXXXXX  oo",
"XXXXXXXXXX oooooo XXXXXXXX  oo",
"XXXXXXXXXX oooooo XXXXXXXX  oo",
"XXXXXXXXXX oooooo XXXXXXXX  oo",
"XXXXXXXXXX oooooo XXXXXXXX  oo",
"XXXXXXXXXX oooooo XXXXXXXX  oo",
"XXXXXXXXXX.      .XXXXXXXX  oo",
"XXXXXXXXXXXXXXXXXXXXXXXXXX  oo",
"XXXXXXXXXXXXXXXXXXXXXXXXXX  oo",
"XXXXXXXXXXXXXXXXXXXXXXXXXX  oo",
"XXXXXXXXXXXXXXXXXXXXXXXXXX  oo",
"XXXXXXXXXXXXXXXXXXXXXXXXXX  oo",
"XXXXXXXXXXXXXXXXXXXXXXXXXX  oo",
"XXXXXXXXXXXXXXXXXXXXXXXXXX  oo",
"XXXXXXXXXXXXXXXXXXXXXXXXXX  oo",
"                              ",
"                              "
};
