/* XPM */
static char *hide_active[] = {
/* columns rows colors chars-per-pixel */
"30 32 7 1 ",
"  c black",
". c gray6",
"X c #212831",
"o c #6E8EBE",
"O c #AEAEAE",
"+ c #FEFEFE",
"@ c white",
/* pixels */
"@@@@@@@@@@@@@@@@@@@@@@@@@@@@@@",
"@@@@@@@@@@@@@@@@@@@@@@@@@@@@@@",
"  @@oooooooooooooooooooooooooo",
"  @@oooooooooooooooooooooooooo",
"  @@oooooooooooooooooooooooooo",
"  @@oooooooooooooooooooooooooo",
"  @@oooooooooooooooooooooooooo",
"  @@oooooooooooooooooooooooooo",
"  @@oooooooooooooooooooooooooo",
"  @@oooooooooooooooooooooooooo",
"  @@oooooooooooooooooooooooooo",
"  @@ooooooXXXXXXXXXXXooooooooo",
"  @@oooooo.OOOOOOOOOXooooooooo",
"  @@oooooo.OOOOOOOOOXooooooooo",
"  @@oooooo.OOOOOOOOOXooooooooo",
"  @@oooooo.OOO......XXXXXooooo",
"  @@oooooo.OOO.+@@@+++++Xooooo",
"  @@oooooo.OOO.@@@++++++Xooooo",
"  @@ooooooXXXXX@++++++++Xooooo",
"  @@ooooooooooX@++++++++Xooooo",
"  @@ooooooooooX@++++++++Xooooo",
"  @@ooooooooooX@++++++++Xooooo",
"  @@ooooooooooXXXXXXXXXXXooooo",
"  @@oooooooooooooooooooooooooo",
"  @@oooooooooooooooooooooooooo",
"  @@oooooooooooooooooooooooooo",
"  @@oooooooooooooooooooooooooo",
"  @@oooooooooooooooooooooooooo",
"  @@oooooooooooooooooooooooooo",
"  @@oooooooooooooooooooooooooo",
"                              ",
"                              "
};
