/* XPM */
static char *hide_prelight[] = {
/* columns rows colors chars-per-pixel */
"30 32 4 1 ",
"  c black",
". c #6E8EBE",
"X c #AEAEAE",
"o c white",
/* pixels */
"oooooooooooooooooooooooooooooo",
"oooooooooooooooooooooooooooooo",
"  oo..........................",
"  oo..........................",
"  oo..........................",
"  oo..........................",
"  oo..........................",
"  oo..........................",
"  oo..........................",
"  oo..........................",
"  oo..........................",
"  oo......           .........",
"  oo...... ooooooooo .........",
"  oo...... ooooooooo .........",
"  oo...... ooooooooo .........",
"  oo...... ooo           .....",
"  oo...... ooo XXXXXXXXX .....",
"  oo...... ooo XXXXXXXXX .....",
"  oo......     XXXXXXXXX .....",
"  oo.......... XXXXXXXXX .....",
"  oo.......... XXXXXXXXX .....",
"  oo.......... XXXXXXXXX .....",
"  oo..........           .....",
"  oo..........................",
"  oo..........................",
"  oo..........................",
"  oo..........................",
"  oo..........................",
"  oo..........................",
"  oo..........................",
"                              ",
"                              "
};
