/* XPM */
static char *hide_pressed[] = {
/* columns rows colors chars-per-pixel */
"30 32 7 1 ",
"  c black",
". c gray6",
"X c #212831",
"o c #6E8EBE",
"O c #AEAEAE",
"+ c #FEFEFE",
"@ c white",
/* pixels */
"@@@@@@@@@@@@@@@@@@@@@@@@@@@@@@",
"@@@@@@@@@@@@@@@@@@@@@@@@@@@@@@",
"                            @@",
"                            @@",
"  oooooooooooooooooooooooooo@@",
"  oooooooooooooooooooooooooo@@",
"  oooooooooooooooooooooooooo@@",
"  oooooooooooooooooooooooooo@@",
"  oooooooooooooooooooooooooo@@",
"  oooooooooooooooooooooooooo@@",
"  oooooooooooooooooooooooooo@@",
"  ooooooooXXXXXXXXXXXooooooo@@",
"  oooooooo.OOOOOOOOOXooooooo@@",
"  oooooooo.OOOOOOOOOXooooooo@@",
"  oooooooo.OOOOOOOOOXooooooo@@",
"  oooooooo.OOO......XXXXXooo@@",
"  oooooooo.OOO.+@@@+++++Xooo@@",
"  oooooooo.OOO.@@@++++++Xooo@@",
"  ooooooooXXXXX@++++++++Xooo@@",
"  ooooooooooooX@++++++++Xooo@@",
"  ooooooooooooX@++++++++Xooo@@",
"  ooooooooooooX@++++++++Xooo@@",
"  ooooooooooooXXXXXXXXXXXooo@@",
"  oooooooooooooooooooooooooo@@",
"  oooooooooooooooooooooooooo@@",
"  oooooooooooooooooooooooooo@@",
"  oooooooooooooooooooooooooo@@",
"  oooooooooooooooooooooooooo@@",
"  @@@@@@@@@@@@@@@@@@@@@@@@@@@@",
"  @@@@@@@@@@@@@@@@@@@@@@@@@@@@",
"                              ",
"                              "
};
