/* XPM */
static char *maximize_prelight[] = {
/* columns rows colors chars-per-pixel */
"30 32 4 1 ",
"  c black",
". c #6E8EBE",
"X c #AEAEAE",
"o c white",
/* pixels */
"oooooooooooooooooooooooooooooo",
"oooooooooooooooooooooooooooooo",
"  oo..........................",
"  oo..........................",
"  oo..........................",
"  oo..........................",
"  oo..........................",
"  oo..........................",
"  oo..........................",
"  oo..........................",
"  oo..........................",
"  oo......             .......",
"  oo...... XXXXXXXX .. .......",
"  oo...... XXXXXXXX .. .......",
"  oo...... XXXXXXXX .. .......",
"  oo...... XXXXXXXX .. .......",
"  oo...... XXXXXXXX .. .......",
"  oo...... XXXXXXXX .. .......",
"  oo...... XXXXXXXX .. .......",
"  oo...... XXXXXXXX .. .......",
"  oo......          .. .......",
"  oo...... ........... .......",
"  oo......             .......",
"  oo..........................",
"  oo..........................",
"  oo..........................",
"  oo..........................",
"  oo..........................",
"  oo..........................",
"  oo..........................",
"                              ",
"                              "
};
