/* XPM */
static char *maximize_toggled_prelight[] = {
/* columns rows colors chars-per-pixel */
"30 32 3 1 ",
"  c black",
". c #6E8EBE",
"X c white",
/* pixels */
"XXXXXXXXXXXXXXXXXXXXXXXXXXXXXX",
"XXXXXXXXXXXXXXXXXXXXXXXXXXXXXX",
"  XX..........................",
"  XX..........................",
"  XX..........................",
"  XX..........................",
"  XX..........................",
"  XX..........................",
"  XX..........................",
"  XX..........................",
"  XX..........................",
"  XX......             .......",
"  XX...... XXXXX ..... .......",
"  XX...... XXXXX ..... .......",
"  XX...... XXXXX ..... .......",
"  XX...... XXXXX ..... .......",
"  XX...... XXXXX ..... .......",
"  XX...... XXXXX ..... .......",
"  XX......       ..... .......",
"  XX...... ........... .......",
"  XX...... ........... .......",
"  XX...... ........... .......",
"  XX......             .......",
"  XX..........................",
"  XX..........................",
"  XX..........................",
"  XX..........................",
"  XX..........................",
"  XX..........................",
"  XX..........................",
"                              ",
"                              "
};
