/* XPM */
static char *maximize_pressed[] = {
/* columns rows colors chars-per-pixel */
"30 32 3 1 ",
"  c black",
". c #6E8EBE",
"X c white",
/* pixels */
"XXXXXXXXXXXXXXXXXXXXXXXXXXXXXX",
"XXXXXXXXXXXXXXXXXXXXXXXXXXXXXX",
"                            XX",
"                            XX",
"  ..........................XX",
"  ..........................XX",
"  ..........................XX",
"  ..........................XX",
"  ..........................XX",
"  ..........................XX",
"  ..........................XX",
"  ........             .....XX",
"  ........ XXXXXXXX .. .....XX",
"  ........ XXXXXXXX .. .....XX",
"  ........ XXXXXXXX .. .....XX",
"  ........ XXXXXXXX .. .....XX",
"  ........ XXXXXXXX .. .....XX",
"  ........ XXXXXXXX .. .....XX",
"  ........ XXXXXXXX .. .....XX",
"  ........ XXXXXXXX .. .....XX",
"  ........          .. .....XX",
"  ........ ........... .....XX",
"  ........             .....XX",
"  ..........................XX",
"  ..........................XX",
"  ..........................XX",
"  ..........................XX",
"  ..........................XX",
"  XXXXXXXXXXXXXXXXXXXXXXXXXXXX",
"  XXXXXXXXXXXXXXXXXXXXXXXXXXXX",
"                              ",
"                              "
};
