/* XPM */
static char *title_5_active[] = {
/* columns rows colors chars-per-pixel */
"10 32 3 1 ",
"  c black",
". c #6E8EBE",
"X c white",
/* pixels */
"XXXXXXXXXX",
"XXXXXXXXXX",
"..........",
"..........",
"..........",
"..........",
"..........",
"..........",
"..........",
"..........",
"..........",
"..........",
"..........",
"..........",
"..........",
"..........",
"..........",
"..........",
"..........",
"..........",
"..........",
"..........",
"..........",
"..........",
"..........",
"..........",
"..........",
"..........",
"..........",
"..........",
"          ",
"          "
};
