/* XPM */
static char *title_4_active[] = {
/* columns rows colors chars-per-pixel */
"13 32 3 1 ",
"  c black",
". c #6E8EBE",
"X c white",
/* pixels */
"XXXXXXXXXXXXX",
"XXXXXXXXXXXXX",
".............",
".............",
".............",
".............",
".............",
".............",
".............",
".............",
".............",
".............",
".............",
".............",
".............",
".............",
".............",
".............",
".............",
".............",
".............",
".............",
".............",
".............",
".............",
".............",
".............",
".............",
".............",
".............",
"             ",
"             "
};
