/* XPM */
static char *title_4_inactive[] = {
/* columns rows colors chars-per-pixel */
"12 32 3 1 ",
"  c black",
". c #AEAEAE",
"X c white",
/* pixels */
"XXXXXXXXXXXX",
"XXXXXXXXXXXX",
"............",
"............",
"............",
"............",
"............",
"............",
"............",
"............",
"............",
"............",
"............",
"............",
"............",
"............",
"............",
"............",
"............",
"............",
"............",
"............",
"............",
"............",
"............",
"............",
"............",
"............",
"............",
"............",
"            ",
"            "
};
