/* XPM */
static char *title_2_inactive[] = {
/* columns rows colors chars-per-pixel */
"14 32 3 1 ",
"  c black",
". c #AEAEAE",
"X c white",
/* pixels */
"XXXXXXXXXXXXXX",
"XXXXXXXXXXXXXX",
"..............",
"..............",
"..............",
"..............",
"..............",
"..............",
"..............",
"..............",
"..............",
"..............",
"..............",
"..............",
"..............",
"..............",
"..............",
"..............",
"..............",
"..............",
"..............",
"..............",
"..............",
"..............",
"..............",
"..............",
"..............",
"..............",
"..............",
"..............",
"              ",
"              "
};
