/* XPM */
static char *title_2_active[] = {
/* columns rows colors chars-per-pixel */
"11 170 5 1 ",
"  c black",
". c #6E8EBE",
"X c #AEAEAE",
"o c white",
"O c None",
/* pixels */
"ooooooooooo",
"ooooooooooo",
"...........",
"...........",
"...........",
"...........",
"...........",
"...........",
"...........",
"...........",
"...........",
"...........",
"...........",
"...........",
"...........",
"...........",
"...........",
"...........",
"...........",
"...........",
"...........",
"...........",
"...........",
"...........",
"...........",
"...........",
"...........",
"...........",
"...........",
"...........",
"           ",
"           ",
"OOOOOOOOOOO",
"OOOOOOOOOOO",
"OOOOOOOOOOO",
"ooooooooooo",
"ooooooooooo",
"XXXXXXXXXXX",
"XXXXXXXXXXX",
"XXXXXXXXXXX",
"XXXXXXXXXXX",
"XXXXXXXXXXX",
"XXXXXXXXXXX",
"XXXXXXXXXXX",
"XXXXXXXXXXX",
"XXXXXXXXXXX",
"XXXXXXXXXXX",
"XXXXXXXXXXX",
"XXXXXXXXXXX",
"XXXXXXXXXXX",
"XXXXXXXXXXX",
"XXXXXXXXXXX",
"XXXXXXXXXXX",
"XXXXXXXXXXX",
"XXXXXXXXXXX",
"XXXXXXXXXXX",
"XXXXXXXXXXX",
"XXXXXXXXXXX",
"XXXXXXXXXXX",
"XXXXXXXXXXX",
"XXXXXXXXXXX",
"XXXXXXXXXXX",
"XXXXXXXXXXX",
"XXXXXXXXXXX",
"XXXXXXXXXXX",
"           ",
"           ",
"OOOOOOOOOOO",
"OOOOOOOOOOO",
"OOOOOOOOOOO",
"OOOOOOOOOOO",
"OOOOOOOOOOO",
"OOOOOOOOOOO",
"OOOOOOOOOOO",
"OOOOOOOOOOO",
"OOOOOOOOOOO",
"OOOOOOOOOOO",
"OOOOOOOOOOO",
"OOOOOOOOOOO",
"OOOOOOOOOOO",
"OOOOOOOOOOO",
"OOOOOOOOOOO",
"OOOOOOOOOOO",
"OOOOOOOOOOO",
"OOOOOOOOOOO",
"OOOOOOOOOOO",
"OOOOOOOOOOO",
"OOOOOOOOOOO",
"OOOOOOOOOOO",
"OOOOOOOOOOO",
"OOOOOOOOOOO",
"OOOOOOOOOOO",
"OOOOOOOOOOO",
"OOOOOOOOOOO",
"OOOOOOOOOOO",
"OOOOOOOOOOO",
"OOOOOOOOOOO",
"OOOOOOOOOOO",
"OOOOOOOOOOO",
"OOOOOOOOOOO",
"OOOOOOOOOOO",
"OOOOOOOOOOO",
"OOOOOOOOOOO",
"OOOOOOOOOOO",
"OOOOOOOOOOO",
"OOOOOOOOOOO",
"OOOOOOOOOOO",
"OOOOOOOOOOO",
"OOOOOOOOOOO",
"OOOOOOOOOOO",
"OOOOOOOOOOO",
"OOOOOOOOOOO",
"OOOOOOOOOOO",
"OOOOOOOOOOO",
"OOOOOOOOOOO",
"OOOOOOOOOOO",
"OOOOOOOOOOO",
"OOOOOOOOOOO",
"OOOOOOOOOOO",
"OOOOOOOOOOO",
"OOOOOOOOOOO",
"OOOOOOOOOOO",
"OOOOOOOOOOO",
"OOOOOOOOOOO",
"OOOOOOOOOOO",
"OOOOOOOOOOO",
"OOOOOOOOOOO",
"OOOOOOOOOOO",
"OOOOOOOOOOO",
"OOOOOOOOOOO",
"ooooooooooo",
"ooooooooooo",
"...........",
"           ",
"OOOOOOOOOOO",
"OOOOOOOOOOO",
"OOOOOOOOOOO",
"OOOOOOOOOOO",
"OOOOOOOOOOO",
"OOOOOOOOOOO",
"OOOOOOOOOOO",
"OOOOOOOOOOO",
"OOOOOOOOOOO",
"OOOOOOOOOOO",
"OOOOOOOOOOO",
"OOOOOOOOOOO",
"OOOOOOOOOOO",
"OOOOOOOOOOO",
"OOOOOOOOOOO",
"OOOOOOOOOOO",
"OOOOOOOOOOO",
"OOOOOOOOOOO",
"OOOOOOOOOOO",
"OOOOOOOOOOO",
"OOOOOOOOOOO",
"OOOOOOOOOOO",
"OOOOOOOOOOO",
"OOOOOOOOOOO",
"OOOOOOOOOOO",
"OOOOOOOOOOO",
"OOOOOOOOOOO",
"OOOOOOOOOOO",
"OOOOOOOOOOO",
"OOOOOOOOOOO",
"OOOOOOOOOOO",
"OOOOOOOOOOO",
"OOOOOOOOOOO",
"OOOOOOOOOOO",
"OOOOOOOOOOO",
"OOOOOOOOOOO"
};
