/* XPM */
static char *title_4_active_12[] = {
/* columns rows colors chars-per-pixel */
"12 32 3 1 ",
"  c black",
". c #6E8EBE",
"X c white",
/* pixels */
"XXXXXXXXXXXX",
"XXXXXXXXXXXX",
"............",
"............",
"............",
"............",
"............",
"............",
"............",
"............",
"............",
"............",
"............",
"............",
"............",
"............",
"............",
"............",
"............",
"............",
"............",
"............",
"............",
"............",
"............",
"............",
"............",
"............",
"............",
"............",
"            ",
"            "
};
