/* XPM */
static char *title_1_inactive[] = {
/* columns rows colors chars-per-pixel */
"13 32 3 1 ",
"  c black",
". c #AEAEAE",
"X c white",
/* pixels */
"XXXXXXXXXXXXX",
"XXXXXXXXXXXXX",
".............",
".............",
".............",
".............",
".............",
".............",
".............",
".............",
".............",
".............",
".............",
".............",
".............",
".............",
".............",
".............",
".............",
".............",
".............",
".............",
".............",
".............",
".............",
".............",
".............",
".............",
".............",
".............",
"             ",
"             "
};
