/* XPM */
static char *title_5_inactive[] = {
/* columns rows colors chars-per-pixel */
"10 32 3 1 ",
"  c black",
". c #AEAEAE",
"X c white",
/* pixels */
"XXXXXXXXXX",
"XXXXXXXXXX",
"..........",
"..........",
"..........",
"..........",
"..........",
"..........",
"..........",
"..........",
"..........",
"..........",
"..........",
"..........",
"..........",
"..........",
"..........",
"..........",
"..........",
"..........",
"..........",
"..........",
"..........",
"..........",
"..........",
"..........",
"..........",
"..........",
"..........",
"..........",
"          ",
"          "
};
