/* XPM */
static char *top_right_active[] = {
/* columns rows colors chars-per-pixel */
"4 32 3 1 ",
"  c black",
". c #6E8EBE",
"X c white",
/* pixels */
"XXXX",
"XXXX",
"..  ",
"..  ",
"..  ",
"..  ",
"..  ",
"..  ",
"..  ",
"..  ",
"..  ",
"..  ",
"..  ",
"..  ",
"..  ",
"..  ",
"..  ",
"..  ",
"..  ",
"..  ",
"..  ",
"..  ",
"..  ",
"..  ",
"..  ",
"..  ",
"..  ",
"..  ",
"..  ",
"..  ",
"    ",
"    "
};
