/* XPM */
static char *top_left_inactive[] = {
/* columns rows colors chars-per-pixel */
"4 32 3 1 ",
"  c black",
". c #AEAEAE",
"X c white",
/* pixels */
"XXXX",
"XXXX",
"XX..",
"XX..",
"XX..",
"XX..",
"XX..",
"XX..",
"XX..",
"XX..",
"XX..",
"XX..",
"XX..",
"XX..",
"XX..",
"XX..",
"XX..",
"XX..",
"XX..",
"XX..",
"XX..",
"XX..",
"XX..",
"XX..",
"XX..",
"XX..",
"XX..",
"XX..",
"XX..",
"XX..",
"XX  ",
"XX  "
};
