/* XPM */
static char *close_active[] = {
/* columns rows colors chars-per-pixel */
"30 32 31 1 ",
"  c black",
". c #334258",
"X c #384860",
"o c #7091C2",
"O c #7192C4",
"+ c #7394C6",
"@ c #7496C8",
"# c #7698CB",
"$ c #779ACE",
"% c #799CD0",
"& c #7A9ED3",
"* c #7CA0D6",
"= c #7EA2D9",
"- c #7FA4DB",
"; c #81A6DE",
": c #82A8E0",
"> c #84AAE2",
", c #85ABE4",
"< c #86ADE6",
"1 c #87AEE7",
"2 c #88AFE9",
"3 c #89B0EA",
"4 c #8AB1EB",
"5 c #8BB2EC",
"6 c #8CB2EC",
"7 c #8CB3ED",
"8 c #8DB4ED",
"9 c #8EB4EE",
"0 c #8EB5EE",
"q c #8FB5EE",
"w c white",
/* pixels */
"wwwwwwwwwwwwwwwwwwwwwwwwwwwwww",
"wwwwwwwwwwwwwwwwwwwwwwwwwwwwww",
"qqqqqqqqqqq9qqqqqqqqqqqqqq  ww",
"qqqqqqqqqqq9qqqqqqqqqqqqqq  ww",
"9999qqqq99999988qq9999q7qq  ww",
"9999q888999999988q8899qq8q  ww",
"q7888888888888888888qq7788  ww",
"77777777777888887777777777  ww",
"74748482882884848284846677  ww",
"77474848822847488848484474  ww",
"44444444282844442244444427  ww",
"4244242422X      X42424224  ww",
"2222222222 wwwwww 22222424  ww",
"<<2<<<<222 wwwwww 2<2<<1<<  ww",
"<<<<<<<<11 wwwwww <<<<<<<<  ww",
"<>,,<><>,, wwwwww ,,,,,,,,  ww",
",,>>>>>>>> wwwwww >>>>>>>>  ww",
";:;;:::;:: wwwwww :::;::::  ww",
";;;;;;;;;; wwwwww ;;;;;;;;  ww",
"-----;=;-- wwwwww ----=;;-  ww",
"-*-======= wwwwww ========  ww",
"**********.      .********  ww",
"&&&&&&&&&&&&&&&&&&&&&&&&&&  ww",
"%%%%%%%%%%$&%%%%&$%%%%%%$&  ww",
"#%$$$$$$#$$$$$$$$$$#$$$$$$  ww",
"#######################@##  ww",
"+#+@@@@@@@@@@@@@@@@@@@@@@@  ww",
"++++++++++++@++++@+++@++@+  ww",
"o+o++o+o++oooo+++o+o+o+oo+  ww",
"oooooooooooooooooooooooooo  ww",
"                              ",
"                              "
};
