/* XPM */
static char *close_inactive[] = {
/* columns rows colors chars-per-pixel */
"30 32 33 1 ",
"  c black",
". c #4E4D4D",
"X c #555454",
"o c #AEAEAE",
"O c gray69",
"+ c #B2B2B2",
"@ c gray70",
"# c #B4B4B4",
"$ c #B6B6B6",
"% c #B7B7B7",
"& c #B9B9B9",
"* c #BBBABA",
"= c #BDBCBC",
"- c gray",
"; c #C0C0C0",
": c #C2C1C1",
"> c #C4C3C3",
", c #C5C5C5",
"< c #C7C6C6",
"1 c #C9C8C8",
"2 c #CACACA",
"3 c gray80",
"4 c #CECDCD",
"5 c #D0CFCF",
"6 c #D2D2D2",
"7 c gray83",
"8 c gray84",
"9 c #D8D8D8",
"0 c #DBDADA",
"q c gainsboro",
"w c gray87",
"e c gray88",
"r c white",
/* pixels */
"rrrrrrrrrrrrrrrrrrrrrrrrrrrrrr",
"rrrrrrrrrrrrrrrrrrrrrrrrrrrrrr",
"eeeeeeeeeeeeeeeeeeeeeeeeee  rr",
"wwwwwwwwwwwwwwwwwwwwwwwwww  rr",
"qqqqw0qqqqqqqqqqqqqqqqqq0w  rr",
"00000000000000000000000000  rr",
"99999999999999089999999999  rr",
"88888888888888888888888888  rr",
"77778686868686866868868677  rr",
"66666666666666666666666666  rr",
"64464564555555555545464646  rr",
"444444444X      X444444444  rr",
"242433244 oooooo 424243324  rr",
"222222222 oooooo 222222222  rr",
"111121112 oooooo 121111121  rr",
"<<<<<<<<< oooooo <<<<<<<<<  rr",
">>>><><>< oooooo <<>1><<><  rr",
">>>>>>>>> oooooo >>>>>>>>>  rr",
">>>>>->>> oooooo >>;>->->>  rr",
";;;->-->> oooooo ;;-->->--  rr",
"--------- oooooo ---------  rr",
"-&&-*--*&.      .-*-*-*-*-  rr",
"&&&-******&****&&&********  rr",
"&&&&&&&&&&&&&&&&&&&&&&&&&&  rr",
"%%$$%%%%$&$$&$$&$&$$&$$$%%  rr",
"$%$$$$$$$$$$$$$$$$$$$$$$$$  rr",
"$$@$@$$@$++$$$++$++$+$+$$$  rr",
"+++@+@@+++$++++$$++$++$+++  rr",
"++++++++++++++++++++++++++  rr",
"o+o++OOOo++oo+o+o++oo++oo+  rr",
"                              ",
"                              "
};
