/* XPM */
static char *close_pressed[] = {
/* columns rows colors chars-per-pixel */
"30 32 29 1 ",
"  c black",
". c #334258",
"X c #384860",
"o c #6E8EBE",
"O c #7394C6",
"+ c #7496C8",
"@ c #7698CB",
"# c #779ACE",
"$ c #799CD0",
"% c #7A9ED3",
"& c #7CA0D6",
"* c #7EA2D9",
"= c #7FA4DB",
"- c #81A6DE",
"; c #82A8E0",
": c #84AAE2",
"> c #85ABE4",
", c #86ADE6",
"< c #87AEE7",
"1 c #88AFE9",
"2 c #89B0EA",
"3 c #8AB1EB",
"4 c #8BB2EC",
"5 c #8CB2EC",
"6 c #8CB3ED",
"7 c #8DB4ED",
"8 c #8EB4EE",
"9 c #8EB5EE",
"0 c white",
/* pixels */
"000000000000000000000000000000",
"000000000000000000000000000000",
"                            00",
"                            00",
"  999999999999999999999999oo00",
"  889888898888888989888989oo00",
"  994888996939888849899988oo00",
"  666944394666484866363644oo00",
"  833838383583535355535583oo00",
"  833853533544383833383383oo00",
"  333333333333333333333333oo00",
"  1113133X      .331333113oo00",
"  1111111 000000 331111311oo00",
"  1,<,<<, 000000 3,,1,,<,,oo00",
"  ,,,,,,, 000000 ,,,,,,,,,oo00",
"  >>,:>>> 000000 >:,>>>>:,oo00",
"  :::::;: 000000 :::::::::oo00",
"  ;-;;;;; 000000 ;;;;;;;;;oo00",
"  ------- 000000 ---------oo00",
"  ===-=== 000000 =========oo00",
"  ******* 000000 *********oo00",
"  &&&*&&&.      .&&&&&&&&&oo00",
"  %%%%%%%%$%%%%$%%%%%%%%$%oo00",
"  $$$$$$$$$$$$$$$$$$$$$$$$oo00",
"  ######################$#oo00",
"  @#@@@@@@@@@@@@@@@@@@@@+#oo00",
"  ++++O+++++++++++++++++++oo00",
"  OOOOOOOOOOOOOOOOOOOOOOOOoo00",
"000000000000000000000000000000",
"000000000000000000000000000000",
"                              ",
"                              "
};
