/* XPM */
static char *hide_prelight_53[] = {
/* columns rows colors chars-per-pixel */
"30 32 3 1 ",
"  c black",
". c #AEAEAE",
"X c white",
/* pixels */
"XXXXXXXXXXXXXXXXXXXXXXXXXXXXXX",
"XXXXXXXXXXXXXXXXXXXXXXXXXXXXXX",
"  XX..........................",
"  XX..........................",
"  XX..........................",
"  XX..........................",
"  XX..........................",
"  XX..........................",
"  XX..........................",
"  XX..........................",
"  XX..........................",
"  XX......           .........",
"  XX...... ......... .........",
"  XX...... ......... .........",
"  XX...... ......... .........",
"  XX...... ...           .....",
"  XX...... ... ......... .....",
"  XX...... ... ......... .....",
"  XX......     ......... .....",
"  XX.......... ......... .....",
"  XX.......... ......... .....",
"  XX.......... ......... .....",
"  XX..........           .....",
"  XX..........................",
"  XX..........................",
"  XX..........................",
"  XX..........................",
"  XX..........................",
"  XX..........................",
"  XX..........................",
"  XX                          ",
"  XX                          "
};
