/* XPM */
static char *hide_inactive[] = {
/* columns rows colors chars-per-pixel */
"30 32 30 1 ",
"  c black",
". c #AEAEAE",
"X c #AFAFAF",
"o c gray69",
"O c #B2B2B2",
"+ c gray70",
"@ c #B4B4B4",
"# c #B6B6B6",
"$ c #B7B7B7",
"% c #B9B9B9",
"& c #BBBABA",
"* c #BDBCBC",
"= c gray",
"- c #C0C0C0",
"; c #C2C1C1",
": c #C4C3C3",
"> c #C5C5C5",
", c #C7C6C6",
"< c #C9C8C8",
"1 c #CACACA",
"2 c gray80",
"3 c #CECDCD",
"4 c #D0CFCF",
"5 c #D2D2D2",
"6 c gray83",
"7 c gray84",
"8 c #D8D8D8",
"9 c #DBDADA",
"0 c gainsboro",
"q c white",
/* pixels */
"qqqqqqqqqqqqqqqqqqqqqqqqqqqqqq",
"qqqqqqqqqqqqqqqqqqqqqqqqqqqqqq",
"  qq00000000000000000000000000",
"  qq99999999999999999999999999",
"  qq99889989998996988898888989",
"  qq66666666666686866686686666",
"  qq66666666666666666666666666",
"  qq55565555555555556555565555",
"  qq34444444544444554545442445",
"  qq33333333222442222222223322",
"  qq3333<33122332222223<233333",
"  qq111<33           <3<3<111<",
"  qq<<<<1, <<<<<<<<< <<<,11111",
"  qq,,,,1: ,,,,,,,,, ,,,,,:1,,",
"  qq,,:::: ,,,:,,,,, ,:1::::::",
"  qq:::::: :::           :::::",
"  qq-:-::- -:- -:::--:-: :-:-:",
"  qq=---=: :=: :==:=:==- =:==-",
"  qq======     ========= =====",
"  qq&=*******= ****&=&=& =****",
"  qq&&&&&&&&&& &&&&&&&&& &&&&&",
"  qq&&$&&#$&&& &$&&&&$&& &&&$&",
"  qq$$$$$$#$##           ##$##",
"  qq##########################",
"  qq#++#++++#++#++++++++#+++++",
"  qq++++++++++++++++++++++++++",
"  qq++++++++++++++++++++++++++",
"  qqXXXXXXXXXXXXXXX+XXXXX+XXX+",
"  qqXXXXXXXXXXXXXXXXXXXXXXXXXX",
"  qqXX.XXXXXXXXXXXXXXXXXXXXXX.",
"                              ",
"                              "
};
