/* XPM */
static char *left_active_58[] = {
/* columns rows colors chars-per-pixel */
"4 2 3 1 ",
"  c black",
". c #6E8EBE",
"X c white",
/* pixels */
"XX. ",
"XX. "
};
