/* XPM */
static char *maximize_toggled_inactive[] = {
/* columns rows colors chars-per-pixel */
"30 32 31 1 ",
"  c black",
". c #AEAEAE",
"X c #AFAFAF",
"o c gray69",
"O c #B2B2B2",
"+ c gray70",
"@ c #B4B4B4",
"# c #B6B6B6",
"$ c #B7B7B7",
"% c #B9B9B9",
"& c #BBBABA",
"* c #BDBCBC",
"= c gray",
"- c #C0C0C0",
"; c #C2C1C1",
": c #C4C3C3",
"> c #C5C5C5",
", c #C7C6C6",
"< c #C9C8C8",
"1 c #CACACA",
"2 c gray80",
"3 c #CECDCD",
"4 c #D0CFCF",
"5 c #D2D2D2",
"6 c gray83",
"7 c gray84",
"8 c #D8D8D8",
"9 c #DBDADA",
"0 c gainsboro",
"q c gray87",
"w c white",
/* pixels */
"wwwwwwwwwwwwwwwwwwwwwwwwwwwwww",
"wwwwwwwwwwwwwwwwwwwwwwwwwwwwww",
"  wwqqqqqqqqqqqqqqqqqqqqqqqqqq",
"  ww009q0000000000000000000000",
"  ww99999999999999999999999999",
"  ww88888888887988888888888888",
"  ww77777777777777777777777777",
"  ww66666666665766666666666666",
"  ww55555555555555555555555555",
"  ww44444444444444444444535334",
"  ww33333333333333333333333333",
"  ww2221313             132223",
"  ww1111111 ........ .. 111111",
"  ww<1<<<11 ........ .. <<<<1<",
"  ww><><>>< ........ .. <><>>>",
"  ww>>>>>>: ........ .. >>>>>>",
"  ww>;>;::: ........ .. ::::::",
"  ww;;;;;;; ........ .. ;;;;;;",
"  ww;==;;=; ........ .. ;-----",
"  ww======= ........ .. ======",
"  ww==&==**          .. =&=&**",
"  ww&&&&&&& ........... &&&&&&",
"  ww&$$&$&&             &$$&&&",
"  ww$$$$$$$$$$$$$$$$$$$$$$$$$$",
"  ww$$$$$$$$$$$$$$$$$$$$$$$$$$",
"  wwO$OOO$OOOOO$OOO$OOOOOOO$OO",
"  wwO$OOOOO$$OOOOOOO$OO$+++++O",
"  wwOOOOOOOOOOOOOOOOOOOOOOOOOO",
"  ww..O..O...OO.OO.O.O..O..OOO",
"  ww.OO..OO....O....O..O..O...",
"                              ",
"                              "
};
