/* XPM */
static char *maximize_toggled_pressed[] = {
/* columns rows colors chars-per-pixel */
"30 32 27 1 ",
"  c black",
". c #6E8EBE",
"X c #7192C4",
"o c #7394C6",
"O c #7496C8",
"+ c #7698CB",
"@ c #779ACE",
"# c #799CD0",
"$ c #7A9ED3",
"% c #7CA0D6",
"& c #7EA2D9",
"* c #7FA4DB",
"= c #81A6DE",
"- c #82A8E0",
"; c #84AAE2",
": c #85ABE4",
"> c #86ADE6",
", c #87AEE7",
"< c #88AFE9",
"1 c #89B0EA",
"2 c #8AB1EB",
"3 c #8BB2EC",
"4 c #8CB2EC",
"5 c #8CB3ED",
"6 c #8DB4ED",
"7 c #8EB4EE",
"8 c white",
/* pixels */
"888888888888888888888888888888",
"888888888888888888888888888888",
"                            88",
"                            88",
"  ..77777777777577777777777788",
"  ..77574774477577577474477588",
"  ..74557337745527275554755588",
"  ..34334434443354545334334588",
"  ..22252525333322332233333388",
"  ..2222222233<32<332<3333<388",
"  ..223<<2223<<33<3<3<3<<,3388",
"  ..,,,,<<             ,,3,,88",
"  ..,,,,,, 88888 ..... ,,,,,88",
"  ..,,,,,, 88888 ..... ,:,,,88",
"  ..;::::: 88888 ..... :::;:88",
"  ..;;;;;; 88888 ..... ;;;;;88",
"  ..=;=;=; 88888 ..... ;=;;-88",
"  ..*-*=== 88888 ..... ==*==88",
"  ..******       ..... *****88",
"  .X&&&&&& ........... &&&&&88",
"  ..&%%&%& ........... %%%%%88",
"  ..$##$#$ ........... $$$$#88",
"  ..######             #####88",
"  ..@@@@@@@@@@@@@@@@@@@@@#@@88",
"  ..++++++++++++++++++++++++88",
"  ..OOOOOoOOOOOoOOOoOOOoOOOO88",
"  ..oooooooooooooooooooooooo88",
"  ..XXXoXXXooXXXXoXXXoXoXXXX88",
"  8888888888888888888888888888",
"  8888888888888888888888888888",
"                              ",
"                              "
};
