/* XPM */
static char *maximize_active[] = {
/* columns rows colors chars-per-pixel */
"30 32 38 1 ",
"  c black",
". c #171E28",
"X c #181E29",
"o c #181F29",
"O c #181F2A",
"+ c #18202A",
"@ c #19202B",
"# c #19212B",
"$ c #1A212C",
"% c #6E8EBE",
"& c #7091C2",
"* c #7192C4",
"= c #7394C6",
"- c #7496C8",
"; c #7698CB",
": c #779ACE",
"> c #799CD0",
", c #7A9ED3",
"< c #7CA0D6",
"1 c #7EA2D9",
"2 c #7FA4DB",
"3 c #81A6DE",
"4 c #82A8E0",
"5 c #84AAE2",
"6 c #85ABE4",
"7 c #86ADE6",
"8 c #87AEE7",
"9 c #88AFE9",
"0 c #89B0EA",
"q c #8AB1EB",
"w c #8BB2EC",
"e c #8CB2EC",
"r c #8CB3ED",
"t c #8DB4ED",
"y c #8EB4EE",
"u c #8EB5EE",
"i c #8FB5EE",
"p c white",
/* pixels */
"pppppppppppppppppppppppppppppp",
"pppppppppppppppppppppppppppppp",
"  ppiiiiiiyyiiiiiiiiiiiiiiiiii",
"  ppiiiiiiiyiiiiiiiiiiiiiiiiii",
"  ppiiiiyyyyyyttiiyyyyirirriii",
"  ppitttyyyyyyyttittyyiiiiiiir",
"  ppttttttttttttttttiirrrrirrr",
"  pprrrrrrrtttttrrrrrrrrrrrrrr",
"  pp0trr99t9r0tt9rtt0rrrrrr0ir",
"  pprr0tttttrtr0tt00tr000rr00r",
"  ppr09rt99900r09t0r0r0rrr0r00",
"  pp00999t       O$$$@$9999000",
"  pp999999 ppppp %%%%%$9999909",
"  pp888889 ppppp &%%%%$9888888",
"  pp888877 ppppp %%%%%+8868868",
"  pp565666 ppppp %%%%%+6656658",
"  pp555555 ppppp %%%%%@5555555",
"  pp353535 ppppp %%%%%@3353553",
"  pp243333       %%%%%O3333352",
"  pp222222O%%%%%%%%%%%O2222222",
"  pp111111.%%%%%%%%%%%.1111111",
"  pp<1<<<<.%%&%%%%%%%%.1<<<<<<",
"  pp,,,,,>.............>,,,,,>",
"  pp>>>>>>>>>>>>>>>>>>>>>>>>>>",
"  pp;>;:;>::::>;::;>::>;::;:::",
"  pp;;;;;;;;;;;;;;;;;;;;;;;;;;",
"  pp--------------------------",
"  pp===-====-*-**-*-*-==-====-",
"  pp**************************",
"  pp&&&&&&&&&&&&*&&&&&&&&&&&&&",
"                              ",
"                              "
};
