/* XPM */
static char *maximize_toggled_active[] = {
/* columns rows colors chars-per-pixel */
"30 32 30 1 ",
"  c black",
". c #6E8EBE",
"X c #7091C2",
"o c #7192C4",
"O c #7394C6",
"+ c #7496C8",
"@ c #7698CB",
"# c #779ACE",
"$ c #799CD0",
"% c #7A9ED3",
"& c #7CA0D6",
"* c #7EA2D9",
"= c #7FA4DB",
"- c #81A6DE",
"; c #82A8E0",
": c #84AAE2",
"> c #85ABE4",
", c #86ADE6",
"< c #87AEE7",
"1 c #88AFE9",
"2 c #89B0EA",
"3 c #8AB1EB",
"4 c #8BB2EC",
"5 c #8CB2EC",
"6 c #8CB3ED",
"7 c #8DB4ED",
"8 c #8EB4EE",
"9 c #8EB5EE",
"0 c #8FB5EE",
"q c white",
/* pixels */
"qqqqqqqqqqqqqqqqqqqqqqqqqqqqqq",
"qqqqqqqqqqqqqqqqqqqqqqqqqqqqqq",
"  qq00000088000000000000000000",
"  qq00000008000000000000000000",
"  qq00008888887700888806066000",
"  qq07778888888770778800000006",
"  qq77777777777777770066660666",
"  qq66666667777766666666666666",
"  qq27661171627726772777666206",
"  qq66277777676277227622266226",
"  qq62167111226216261626662622",
"  qq221117             2111222",
"  qq111111 qqqqqqqq .. 1111121",
"  qq<<<<<1 qqqqqqqq .. <<<<<<<",
"  qq<<<<,, qqqqqqqq .. <<><<><",
"  qq:>:>>> qqqqqqqq .. >>:>>:<",
"  qq:::::: qqqqqqqq .. :::::::",
"  qq-:-:-: qqqqqqqq .. ::--::-",
"  qq=;---- qqqqqqqq .. -=---;=",
"  qq====== qqqqqqqq .. =======",
"  qq******          .. *******",
"  qq&*&&&& ........... *&&&&&&",
"  qq%%%%%$             $%%%%%%",
"  qq$$$$$$$$$$$$$$$$$$$$$$$$$$",
"  qq##########################",
"  qq@@@@@#@@@@@@@#+#+#+#+#+##+",
"  qq++++++++O+++O+++++++++++++",
"  qqOOOOOOOOOOOOOOOOOOOOOOOOOO",
"  qqoooooooooooooooooooooooooo",
"  qqXXXXXXXXXXXXXXXXXXXXXXXXXX",
"                              ",
"                              "
};
