/* XPM */
static char *menu_inactive[] = {
/* columns rows colors chars-per-pixel */
"17 31 26 1 ",
"  c #AEAEAE",
". c #B1B1B1",
"X c gray71",
"o c gray72",
"O c #BCBCBD",
"+ c #BFBFC0",
"@ c #C0C0C0",
"# c #C2C2C3",
"$ c #C5C5C6",
"% c #C8C8C8",
"& c #CFCFD0",
"* c #D0D0D0",
"= c #D4D4D5",
"- c gray84",
"; c #D8D8D9",
": c #DADADB",
"> c #DEDEDF",
", c #E4E4E4",
"< c #E9E9E9",
"1 c #EEEEEE",
"2 c #F1F1F1",
"3 c #F6F6F6",
"4 c #F9F9FA",
"5 c gray98",
"6 c #FDFDFD",
"7 c white",
/* pixels */
"                 ",
"                 ",
"                 ",
"                 ",
"                 ",
"                 ",
"                 ",
"                 ",
" .@%=========*@  ",
" .*57777777775*  ",
"  $17777777771$  ",
"  X;777777777;X  ",
"   @<7777777<@   ",
"  ..=5777775=.   ",
"    @,77777,@    ",
"     =37773=     ",
"     O>777>O     ",
"      %171%      ",
"      o>5>o      ",
"       O&+       ",
"                 ",
"                 ",
"                 ",
"                 ",
"                 ",
"                 ",
"                 ",
"                 ",
"                 ",
"                 ",
"                 "
};
