/* XPM */
static char *menu_pressed[] = {
/* columns rows colors chars-per-pixel */
"17 30 17 1 ",
"  c black",
". c #0A7CE7",
"X c #057BE9",
"o c #137DE3",
"O c #117DE4",
"+ c #127DE4",
"@ c #1B7FE0",
"# c #6E8EBE",
"$ c #2781DB",
"% c #2F83D8",
"& c #3B85D3",
"* c #4887CE",
"= c #558AC8",
"- c #648CC2",
"; c #608BC4",
": c #6A8DC0",
"> c white",
/* pixels */
">>>>>>>>>>>>>>>>>",
"#################",
"#################",
"#################",
"#################",
"#################",
"#################",
"#################",
"#################",
"###oXXXXXXXXXO###",
"###%XXXXXXXXX%###",
"###-.XXXXXXX.-###",
"####&XXXXXXX&####",
"####:OXXXXXO:####",
"#####*XXXXX*#####",
"######@XXX@######",
"######=XXX=######",
"#######$X$#######",
"#######;O;#######",
"#################",
"#################",
"#################",
"#################",
"#################",
"#################",
"#################",
"#################",
"#################",
"#################",
"                 "
};
