/* XPM */
static char *newtheme_13[] = {
/* columns rows colors chars-per-pixel */
"14 30 3 1 ",
"  c black",
". c #6E8EBE",
"X c white",
/* pixels */
"XXXXXXXXXXXXXX",
"..............",
"..............",
"..............",
"..............",
"..............",
"..............",
"..............",
"..............",
"..............",
"..............",
"..............",
"..............",
"..............",
"..............",
"..............",
"..............",
"..............",
"..............",
"..............",
"..............",
"..............",
"..............",
"..............",
"..............",
"..............",
"..............",
"..............",
"..............",
"              "
};
