/* XPM */
static char *right_inactive[] = {
/* columns rows colors chars-per-pixel */
"4 2 3 1 ",
"  c black",
". c #AEAEAE",
"X c white",
/* pixels */
"X.  ",
"X.  "
};
