/* XPM */
static char *title_1_inactive[] = {
/* columns rows colors chars-per-pixel */
"13 32 30 1 ",
"  c black",
". c gray69",
"X c #B2B2B2",
"o c gray70",
"O c #B4B4B4",
"+ c #B6B6B6",
"@ c #B7B7B7",
"# c #B9B9B9",
"$ c #BBBABA",
"% c #BDBCBC",
"& c gray",
"* c #C0C0C0",
"= c #C2C1C1",
"- c #C4C3C3",
"; c #C5C5C5",
": c #C7C6C6",
"> c #C9C8C8",
", c #CACACA",
"< c gray80",
"1 c #CECDCD",
"2 c #D0CFCF",
"3 c #D2D2D2",
"4 c gray83",
"5 c gray84",
"6 c #D8D8D8",
"7 c #DBDADA",
"8 c gainsboro",
"9 c gray87",
"0 c gray88",
"q c white",
/* pixels */
"qqqqqqqqqqqqq",
"qqqqqqqqqqqqq",
"0000000000000",
"9999999999999",
"8888978888887",
"7777777777777",
"6666666666666",
"5555555555555",
"4444535353535",
"3333333333333",
"3113123122221",
"1111111111111",
",1,1<<,11,,1<",
",,,,,,,,,,,,,",
">>>>,>>>,>>>,",
":::::::::::::",
"::*:-::::::::",
"**::*:*:*-*::",
"*-*-*-*******",
"*************",
"%*%*%*%**%*%%",
"%%%%%%%%%%%%%",
"$##%$$$$$$%#$",
"#############",
"#O##O#O###O#O",
"O#OO#O#OOO#O#",
"OOOOOOOOOOOXO",
"OOXOOXOXOXOXX",
"XXXXXXXXXXXXX",
"...XX....X...",
"             ",
"             "
};
