/* XPM */
static char *title_4_inactive[] = {
/* columns rows colors chars-per-pixel */
"12 32 30 1 ",
"  c black",
". c gray69",
"X c #B2B2B2",
"o c gray70",
"O c #B4B4B4",
"+ c #B6B6B6",
"@ c #B7B7B7",
"# c #B9B9B9",
"$ c #BBBABA",
"% c #BDBCBC",
"& c gray",
"* c #C0C0C0",
"= c #C2C1C1",
"- c #C4C3C3",
"; c #C5C5C5",
": c #C7C6C6",
"> c #C9C8C8",
", c #CACACA",
"< c gray80",
"1 c #CECDCD",
"2 c #D0CFCF",
"3 c #D2D2D2",
"4 c gray83",
"5 c gray84",
"6 c #D8D8D8",
"7 c #DBDADA",
"8 c gainsboro",
"9 c gray87",
"0 c gray88",
"q c white",
/* pixels */
"qqqqqqqqqqqq",
"qqqqqqqqqqqq",
"000000000000",
"999999999999",
"888897888888",
"777777777777",
"666666666666",
"555555555555",
"444453535353",
"333333333333",
"311312312222",
"111111111111",
",1,1<<,11,,1",
",,,,,,,,,,,,",
">>>>,>>>,>>>",
"::::::::::::",
":::::-:-::::",
"*-*-*---*-*:",
"-*-*-**-*-**",
"************",
"*&&&%&&&&&&&",
"%%%%%%%%&%%%",
"%%%#%%#%#%#%",
"@##@##@####@",
"@@@@@@@@##O#",
"@O@O@O@@OO#O",
"OOOOOOOOOOOO",
"OO.OO.OOOOOO",
"O.O..O.O..O.",
"............",
"            ",
"            "
};
