/* XPM */
static char *title_2_active_68[] = {
/* columns rows colors chars-per-pixel */
"7 62 5 1 ",
"  c black",
". c #FFC600",
"X c #6E8EBE",
"o c #AEAEAE",
"O c white",
/* pixels */
"OOOOOOO",
"XXXXXXX",
"       ",
"       ",
".......",
".......",
".......",
".......",
".......",
".......",
".......",
".......",
".......",
".......",
".......",
".......",
".......",
".......",
".......",
".......",
".......",
".......",
"OOOOOOO",
"OOOOOOO",
"ooooooo",
"       ",
".......",
".......",
".......",
".......",
".......",
".......",
".......",
".......",
".......",
".......",
".......",
".......",
".......",
".......",
".......",
".......",
".......",
".......",
".......",
".......",
".......",
".......",
".......",
".......",
".......",
".......",
".......",
".......",
".......",
".......",
".......",
".......",
".......",
".......",
".......",
"......."
};
