/* XPM */
static char *title_4_active[] = {
/* columns rows colors chars-per-pixel */
"13 32 30 1 ",
"  c black",
". c #6F90C0",
"X c #7091C2",
"o c #7192C4",
"O c #7394C6",
"+ c #7496C8",
"@ c #7698CB",
"# c #779ACE",
"$ c #799CD0",
"% c #7A9ED3",
"& c #7CA0D6",
"* c #7EA2D9",
"= c #7FA4DB",
"- c #81A6DE",
"; c #82A8E0",
": c #84AAE2",
"> c #85ABE4",
", c #86ADE6",
"< c #87AEE7",
"1 c #88AFE9",
"2 c #89B0EA",
"3 c #8AB1EB",
"4 c #8BB2EC",
"5 c #8CB2EC",
"6 c #8CB3ED",
"7 c #8DB4ED",
"8 c #8EB4EE",
"9 c #8EB5EE",
"0 c #8FB5EE",
"q c white",
/* pixels */
"qqqqqqqqqqqqq",
"qqqqqqqqqqqqq",
"0000000099000",
"0000707099700",
"5005079950000",
"0055777606675",
"6666666606550",
"6663666655536",
"6636563636363",
"1661333333333",
"1111311331133",
"1111111111111",
"111,,11,,,1,<",
",,,,,,,,,,,,,",
":>>>:>>>,:>>>",
":::::::::::::",
";;;;;;;;;;;;;",
"-------------",
"======*======",
"*************",
"&&&&%*%*&&&&&",
"%%%%%%%%%%%%%",
"#%%$%$$%$$%$%",
"@$@@##@#@%@@@",
"@@@@@@@@@@@@@",
"+@+++++++++++",
"OOOOOOOOOOOOO",
"ooooooooooooo",
".o.o..o.XXXX.",
".............",
"             ",
"             "
};
