/* XPM */
static char *title_5_active[] = {
/* columns rows colors chars-per-pixel */
"10 32 30 1 ",
"  c black",
". c #6F90C0",
"X c #7091C2",
"o c #7192C4",
"O c #7394C6",
"+ c #7496C8",
"@ c #7698CB",
"# c #779ACE",
"$ c #799CD0",
"% c #7A9ED3",
"& c #7CA0D6",
"* c #7EA2D9",
"= c #7FA4DB",
"- c #81A6DE",
"; c #82A8E0",
": c #84AAE2",
"> c #85ABE4",
", c #86ADE6",
"< c #87AEE7",
"1 c #88AFE9",
"2 c #89B0EA",
"3 c #8AB1EB",
"4 c #8BB2EC",
"5 c #8CB2EC",
"6 c #8CB3ED",
"7 c #8DB4ED",
"8 c #8EB4EE",
"9 c #8EB5EE",
"0 c #8FB5EE",
"q c white",
/* pixels */
"qqqqqqqqqq",
"qqqqqqqqqq",
"0000000099",
"0000707099",
"5005079905",
"0055777605",
"6666666650",
"6663666655",
"6636563636",
"1661333333",
"1111311331",
"1111111111",
"111,,11,,,",
",,,,,,,,,,",
":>>>:>>>,:",
"::::::::::",
";;--;;;-;;",
"----------",
"-=-=-=-*==",
"*****&****",
"&&&&&&&&&&",
"%%%%%%%%%%",
"$$$$$$#%#%",
"##########",
"@@@@@@@@@@",
"++++++++++",
"OOOOOOOOOO",
"XOXooooooo",
"XXXXXXXXXX",
"..........",
"          ",
"          "
};
